<mxfile host="Electron" agent="Mozilla/5.0 (Windows NT 10.0; Win64; x64) AppleWebKit/537.36 (KHTML, like Gecko) draw.io/28.2.5 Chrome/138.0.7204.251 Electron/37.6.1 Safari/537.36" version="28.2.5">
  <diagram name="Page-1" id="rcnlBQO7Jf26NRboH2IG">
    <mxGraphModel dx="1816" dy="2135" grid="1" gridSize="10" guides="1" tooltips="1" connect="1" arrows="1" fold="1" page="1" pageScale="1" pageWidth="850" pageHeight="1100" math="0" shadow="0">
      <root>
        <mxCell id="0" />
        <mxCell id="1" parent="0" />
        <mxCell id="8B4oB40xsuTlf0uBAs5t-1" value="Репетитор" style="shape=umlActor;verticalLabelPosition=bottom;verticalAlign=top;html=1;outlineConnect=0;" parent="1" vertex="1">
          <mxGeometry x="990" y="335" width="30" height="60" as="geometry" />
        </mxCell>
        <mxCell id="8B4oB40xsuTlf0uBAs5t-2" value="Учень" style="shape=umlActor;verticalLabelPosition=bottom;verticalAlign=top;html=1;outlineConnect=0;" parent="1" vertex="1">
          <mxGeometry x="80" y="230" width="30" height="60" as="geometry" />
        </mxCell>
        <mxCell id="8B4oB40xsuTlf0uBAs5t-3" value="Пошук репетитора" style="ellipse;whiteSpace=wrap;html=1;" parent="1" vertex="1">
          <mxGeometry x="340" y="50" width="140" height="70" as="geometry" />
        </mxCell>
        <mxCell id="8B4oB40xsuTlf0uBAs5t-4" value="Переглянути розклад репетитора" style="ellipse;whiteSpace=wrap;html=1;" parent="1" vertex="1">
          <mxGeometry x="370" y="240" width="140" height="70" as="geometry" />
        </mxCell>
        <mxCell id="8B4oB40xsuTlf0uBAs5t-5" value="Переглянути профіль репетитора" style="ellipse;whiteSpace=wrap;html=1;" parent="1" vertex="1">
          <mxGeometry x="380" y="150" width="140" height="70" as="geometry" />
        </mxCell>
        <mxCell id="8B4oB40xsuTlf0uBAs5t-6" value="Залишити відгук" style="ellipse;whiteSpace=wrap;html=1;" parent="1" vertex="1">
          <mxGeometry y="515" width="140" height="70" as="geometry" />
        </mxCell>
        <mxCell id="8B4oB40xsuTlf0uBAs5t-7" value="Встановити формат заняття&amp;nbsp;" style="ellipse;whiteSpace=wrap;html=1;" parent="1" vertex="1">
          <mxGeometry x="930" y="150" width="140" height="70" as="geometry" />
        </mxCell>
        <mxCell id="8B4oB40xsuTlf0uBAs5t-8" value="Забронювати заняття" style="ellipse;whiteSpace=wrap;html=1;" parent="1" vertex="1">
          <mxGeometry x="330" y="320" width="140" height="70" as="geometry" />
        </mxCell>
        <mxCell id="8B4oB40xsuTlf0uBAs5t-11" value="" style="endArrow=open;endFill=1;endSize=12;html=1;rounded=0;" parent="1" source="8B4oB40xsuTlf0uBAs5t-2" target="8B4oB40xsuTlf0uBAs5t-8" edge="1">
          <mxGeometry width="160" relative="1" as="geometry">
            <mxPoint x="380" y="230" as="sourcePoint" />
            <mxPoint x="540" y="230" as="targetPoint" />
          </mxGeometry>
        </mxCell>
        <mxCell id="8B4oB40xsuTlf0uBAs5t-12" value="" style="endArrow=open;endFill=1;endSize=12;html=1;rounded=0;" parent="1" source="8B4oB40xsuTlf0uBAs5t-2" target="8B4oB40xsuTlf0uBAs5t-4" edge="1">
          <mxGeometry width="160" relative="1" as="geometry">
            <mxPoint x="380" y="230" as="sourcePoint" />
            <mxPoint x="540" y="230" as="targetPoint" />
          </mxGeometry>
        </mxCell>
        <mxCell id="8B4oB40xsuTlf0uBAs5t-13" value="" style="endArrow=open;endFill=1;endSize=12;html=1;rounded=0;" parent="1" source="8B4oB40xsuTlf0uBAs5t-2" target="8B4oB40xsuTlf0uBAs5t-5" edge="1">
          <mxGeometry width="160" relative="1" as="geometry">
            <mxPoint x="380" y="230" as="sourcePoint" />
            <mxPoint x="540" y="230" as="targetPoint" />
          </mxGeometry>
        </mxCell>
        <mxCell id="8B4oB40xsuTlf0uBAs5t-14" value="" style="endArrow=open;endFill=1;endSize=12;html=1;rounded=0;" parent="1" source="8B4oB40xsuTlf0uBAs5t-2" target="8B4oB40xsuTlf0uBAs5t-6" edge="1">
          <mxGeometry width="160" relative="1" as="geometry">
            <mxPoint x="380" y="230" as="sourcePoint" />
            <mxPoint x="540" y="230" as="targetPoint" />
          </mxGeometry>
        </mxCell>
        <mxCell id="8B4oB40xsuTlf0uBAs5t-15" value="" style="endArrow=open;endFill=1;endSize=12;html=1;rounded=0;" parent="1" source="8B4oB40xsuTlf0uBAs5t-2" target="8B4oB40xsuTlf0uBAs5t-3" edge="1">
          <mxGeometry width="160" relative="1" as="geometry">
            <mxPoint x="380" y="230" as="sourcePoint" />
            <mxPoint x="540" y="230" as="targetPoint" />
          </mxGeometry>
        </mxCell>
        <mxCell id="8B4oB40xsuTlf0uBAs5t-16" value="Встановити фільтр по предмету" style="ellipse;whiteSpace=wrap;html=1;" parent="1" vertex="1">
          <mxGeometry x="500" y="-80" width="140" height="70" as="geometry" />
        </mxCell>
        <mxCell id="8B4oB40xsuTlf0uBAs5t-17" value="Заняття offline" style="ellipse;whiteSpace=wrap;html=1;" parent="1" vertex="1">
          <mxGeometry x="990" width="140" height="70" as="geometry" />
        </mxCell>
        <mxCell id="8B4oB40xsuTlf0uBAs5t-18" value="Заняття online&amp;nbsp;" style="ellipse;whiteSpace=wrap;html=1;" parent="1" vertex="1">
          <mxGeometry x="1135" y="50" width="140" height="70" as="geometry" />
        </mxCell>
        <mxCell id="8B4oB40xsuTlf0uBAs5t-20" value="Вказати інформацію&amp;nbsp;&lt;div&gt;про освіту&amp;nbsp;&lt;/div&gt;&lt;div&gt;і кваліфікацію&lt;/div&gt;" style="ellipse;whiteSpace=wrap;html=1;" parent="1" vertex="1">
          <mxGeometry x="680" y="290" width="140" height="70" as="geometry" />
        </mxCell>
        <mxCell id="8B4oB40xsuTlf0uBAs5t-21" value="Встановити ціну за заняття" style="ellipse;whiteSpace=wrap;html=1;" parent="1" vertex="1">
          <mxGeometry x="1135" y="330" width="140" height="70" as="geometry" />
        </mxCell>
        <mxCell id="8B4oB40xsuTlf0uBAs5t-22" value="Підтвердити бронювання" style="ellipse;whiteSpace=wrap;html=1;" parent="1" vertex="1">
          <mxGeometry x="710" y="410" width="140" height="70" as="geometry" />
        </mxCell>
        <mxCell id="8B4oB40xsuTlf0uBAs5t-24" value="&amp;nbsp;Додати заняття до рокладу" style="ellipse;whiteSpace=wrap;html=1;" parent="1" vertex="1">
          <mxGeometry x="600" y="540" width="140" height="70" as="geometry" />
        </mxCell>
        <mxCell id="8B4oB40xsuTlf0uBAs5t-26" value="" style="endArrow=open;endFill=1;endSize=12;html=1;rounded=0;" parent="1" source="8B4oB40xsuTlf0uBAs5t-1" target="8B4oB40xsuTlf0uBAs5t-7" edge="1">
          <mxGeometry width="160" relative="1" as="geometry">
            <mxPoint x="970" y="300.26" as="sourcePoint" />
            <mxPoint x="1197" y="447.26" as="targetPoint" />
          </mxGeometry>
        </mxCell>
        <mxCell id="8B4oB40xsuTlf0uBAs5t-27" value="" style="endArrow=open;endFill=1;endSize=12;html=1;rounded=0;" parent="1" source="8B4oB40xsuTlf0uBAs5t-1" target="8B4oB40xsuTlf0uBAs5t-20" edge="1">
          <mxGeometry width="160" relative="1" as="geometry">
            <mxPoint x="60" y="682" as="sourcePoint" />
            <mxPoint x="172" y="668" as="targetPoint" />
          </mxGeometry>
        </mxCell>
        <mxCell id="8B4oB40xsuTlf0uBAs5t-28" value="" style="endArrow=open;endFill=1;endSize=12;html=1;rounded=0;" parent="1" source="8B4oB40xsuTlf0uBAs5t-1" target="8B4oB40xsuTlf0uBAs5t-21" edge="1">
          <mxGeometry width="160" relative="1" as="geometry">
            <mxPoint x="1000" y="524" as="sourcePoint" />
            <mxPoint x="1112" y="510" as="targetPoint" />
          </mxGeometry>
        </mxCell>
        <mxCell id="8B4oB40xsuTlf0uBAs5t-29" value="" style="endArrow=open;endFill=1;endSize=12;html=1;rounded=0;" parent="1" source="8B4oB40xsuTlf0uBAs5t-1" target="8B4oB40xsuTlf0uBAs5t-22" edge="1">
          <mxGeometry width="160" relative="1" as="geometry">
            <mxPoint x="990" y="602" as="sourcePoint" />
            <mxPoint x="1102" y="588" as="targetPoint" />
          </mxGeometry>
        </mxCell>
        <mxCell id="8B4oB40xsuTlf0uBAs5t-30" value="Extends" style="endArrow=block;endSize=16;endFill=0;html=1;rounded=0;" parent="1" source="8B4oB40xsuTlf0uBAs5t-17" target="8B4oB40xsuTlf0uBAs5t-7" edge="1">
          <mxGeometry width="160" relative="1" as="geometry">
            <mxPoint x="1180" y="230" as="sourcePoint" />
            <mxPoint x="1340" y="230" as="targetPoint" />
          </mxGeometry>
        </mxCell>
        <mxCell id="8B4oB40xsuTlf0uBAs5t-31" value="Extends" style="endArrow=block;endSize=16;endFill=0;html=1;rounded=0;" parent="1" source="8B4oB40xsuTlf0uBAs5t-18" target="8B4oB40xsuTlf0uBAs5t-7" edge="1">
          <mxGeometry width="160" relative="1" as="geometry">
            <mxPoint x="1180" y="230" as="sourcePoint" />
            <mxPoint x="1340" y="230" as="targetPoint" />
          </mxGeometry>
        </mxCell>
        <mxCell id="8B4oB40xsuTlf0uBAs5t-33" value="Use" style="endArrow=open;endSize=12;dashed=1;html=1;rounded=0;" parent="1" source="8B4oB40xsuTlf0uBAs5t-22" target="8B4oB40xsuTlf0uBAs5t-24" edge="1">
          <mxGeometry width="160" relative="1" as="geometry">
            <mxPoint x="1260" y="520" as="sourcePoint" />
            <mxPoint x="1420" y="520" as="targetPoint" />
          </mxGeometry>
        </mxCell>
        <mxCell id="8B4oB40xsuTlf0uBAs5t-35" value="Use" style="endArrow=open;endSize=12;dashed=1;html=1;rounded=0;" parent="1" source="8B4oB40xsuTlf0uBAs5t-5" target="8B4oB40xsuTlf0uBAs5t-20" edge="1">
          <mxGeometry width="160" relative="1" as="geometry">
            <mxPoint x="695" y="474.66" as="sourcePoint" />
            <mxPoint x="780" y="474.66" as="targetPoint" />
          </mxGeometry>
        </mxCell>
        <mxCell id="8B4oB40xsuTlf0uBAs5t-37" value="Встановити фільтр по місту" style="ellipse;whiteSpace=wrap;html=1;" parent="1" vertex="1">
          <mxGeometry x="790" y="10" width="140" height="70" as="geometry" />
        </mxCell>
        <mxCell id="8B4oB40xsuTlf0uBAs5t-38" value="Extends" style="endArrow=block;endSize=16;endFill=0;html=1;rounded=0;" parent="1" source="8B4oB40xsuTlf0uBAs5t-37" target="8B4oB40xsuTlf0uBAs5t-41" edge="1">
          <mxGeometry width="160" relative="1" as="geometry">
            <mxPoint x="630" y="200" as="sourcePoint" />
            <mxPoint x="790" y="200" as="targetPoint" />
          </mxGeometry>
        </mxCell>
        <mxCell id="8B4oB40xsuTlf0uBAs5t-39" value="Extends" style="endArrow=block;endSize=16;endFill=0;html=1;rounded=0;" parent="1" source="8B4oB40xsuTlf0uBAs5t-41" target="8B4oB40xsuTlf0uBAs5t-3" edge="1">
          <mxGeometry width="160" relative="1" as="geometry">
            <mxPoint x="780" y="200" as="sourcePoint" />
            <mxPoint x="960" y="150" as="targetPoint" />
          </mxGeometry>
        </mxCell>
        <mxCell id="8B4oB40xsuTlf0uBAs5t-40" value="Extends" style="endArrow=block;endSize=16;endFill=0;html=1;rounded=0;" parent="1" source="8B4oB40xsuTlf0uBAs5t-16" target="8B4oB40xsuTlf0uBAs5t-3" edge="1">
          <mxGeometry width="160" relative="1" as="geometry">
            <mxPoint x="390" y="230" as="sourcePoint" />
            <mxPoint x="550" y="230" as="targetPoint" />
          </mxGeometry>
        </mxCell>
        <mxCell id="8B4oB40xsuTlf0uBAs5t-41" value="Встановити фільтр по формату проведення" style="ellipse;whiteSpace=wrap;html=1;" parent="1" vertex="1">
          <mxGeometry x="540" y="10" width="140" height="70" as="geometry" />
        </mxCell>
        <mxCell id="8B4oB40xsuTlf0uBAs5t-42" value="Встановити фільтр по ціні" style="ellipse;whiteSpace=wrap;html=1;" parent="1" vertex="1">
          <mxGeometry x="760" y="-120" width="140" height="70" as="geometry" />
        </mxCell>
        <mxCell id="8B4oB40xsuTlf0uBAs5t-43" value="Extends" style="endArrow=block;endSize=16;endFill=0;html=1;rounded=0;" parent="1" source="8B4oB40xsuTlf0uBAs5t-42" target="8B4oB40xsuTlf0uBAs5t-41" edge="1">
          <mxGeometry width="160" relative="1" as="geometry">
            <mxPoint x="840" y="100" as="sourcePoint" />
            <mxPoint x="710" y="110" as="targetPoint" />
          </mxGeometry>
        </mxCell>
        <mxCell id="8B4oB40xsuTlf0uBAs5t-45" value="Extends" style="endArrow=block;endSize=16;endFill=0;html=1;rounded=0;" parent="1" source="8B4oB40xsuTlf0uBAs5t-42" target="8B4oB40xsuTlf0uBAs5t-16" edge="1">
          <mxGeometry width="160" relative="1" as="geometry">
            <mxPoint x="550" y="110" as="sourcePoint" />
            <mxPoint x="710" y="110" as="targetPoint" />
          </mxGeometry>
        </mxCell>
        <mxCell id="8B4oB40xsuTlf0uBAs5t-47" value="Use" style="endArrow=open;endSize=12;dashed=1;html=1;rounded=0;" parent="1" source="8B4oB40xsuTlf0uBAs5t-41" target="8B4oB40xsuTlf0uBAs5t-7" edge="1">
          <mxGeometry width="160" relative="1" as="geometry">
            <mxPoint x="770" y="220" as="sourcePoint" />
            <mxPoint x="930" y="220" as="targetPoint" />
          </mxGeometry>
        </mxCell>
        <mxCell id="8B4oB40xsuTlf0uBAs5t-50" value="Use" style="endArrow=open;endSize=12;dashed=1;html=1;rounded=0;" parent="1" source="8B4oB40xsuTlf0uBAs5t-22" target="8B4oB40xsuTlf0uBAs5t-8" edge="1">
          <mxGeometry width="160" relative="1" as="geometry">
            <mxPoint x="519.5" y="304.75" as="sourcePoint" />
            <mxPoint x="701.5" y="394.75" as="targetPoint" />
          </mxGeometry>
        </mxCell>
        <mxCell id="8B4oB40xsuTlf0uBAs5t-51" value="Скасувати заняття" style="ellipse;whiteSpace=wrap;html=1;" parent="1" vertex="1">
          <mxGeometry x="180" y="530" width="140" height="70" as="geometry" />
        </mxCell>
        <mxCell id="8B4oB40xsuTlf0uBAs5t-52" value="Use" style="endArrow=open;endSize=12;dashed=1;html=1;rounded=0;" parent="1" source="8B4oB40xsuTlf0uBAs5t-51" target="8B4oB40xsuTlf0uBAs5t-22" edge="1">
          <mxGeometry width="160" relative="1" as="geometry">
            <mxPoint x="672.36" y="486.14" as="sourcePoint" />
            <mxPoint x="410.36" y="460.14" as="targetPoint" />
          </mxGeometry>
        </mxCell>
        <mxCell id="8B4oB40xsuTlf0uBAs5t-53" value="" style="endArrow=open;endFill=1;endSize=12;html=1;rounded=0;" parent="1" source="8B4oB40xsuTlf0uBAs5t-2" target="8B4oB40xsuTlf0uBAs5t-51" edge="1">
          <mxGeometry width="160" relative="1" as="geometry">
            <mxPoint x="80" y="280.48" as="sourcePoint" />
            <mxPoint x="304" y="410.48" as="targetPoint" />
          </mxGeometry>
        </mxCell>
        <mxCell id="8B4oB40xsuTlf0uBAs5t-57" value="Редагувати профіль" style="ellipse;whiteSpace=wrap;html=1;" parent="1" vertex="1">
          <mxGeometry x="560" y="770" width="140" height="70" as="geometry" />
        </mxCell>
        <mxCell id="8B4oB40xsuTlf0uBAs5t-59" value="" style="endArrow=open;endFill=1;endSize=12;html=1;rounded=0;" parent="1" source="8B4oB40xsuTlf0uBAs5t-2" target="8B4oB40xsuTlf0uBAs5t-57" edge="1">
          <mxGeometry width="160" relative="1" as="geometry">
            <mxPoint x="370" y="570" as="sourcePoint" />
            <mxPoint x="370" y="790" as="targetPoint" />
            <Array as="points">
              <mxPoint x="170" y="620" />
            </Array>
          </mxGeometry>
        </mxCell>
        <mxCell id="8B4oB40xsuTlf0uBAs5t-61" value="" style="endArrow=open;endFill=1;endSize=12;html=1;rounded=0;" parent="1" source="8B4oB40xsuTlf0uBAs5t-1" target="8B4oB40xsuTlf0uBAs5t-57" edge="1">
          <mxGeometry width="160" relative="1" as="geometry">
            <mxPoint x="1052.95" y="579.67" as="sourcePoint" />
            <mxPoint x="899.95" y="634.67" as="targetPoint" />
          </mxGeometry>
        </mxCell>
        <mxCell id="8B4oB40xsuTlf0uBAs5t-66" value="Додати предмет" style="ellipse;whiteSpace=wrap;html=1;" parent="1" vertex="1">
          <mxGeometry x="980" y="530" width="140" height="70" as="geometry" />
        </mxCell>
        <mxCell id="8B4oB40xsuTlf0uBAs5t-69" value="" style="endArrow=open;endFill=1;endSize=12;html=1;rounded=0;" parent="1" source="8B4oB40xsuTlf0uBAs5t-1" target="8B4oB40xsuTlf0uBAs5t-66" edge="1">
          <mxGeometry width="160" relative="1" as="geometry">
            <mxPoint x="1083" y="420" as="sourcePoint" />
            <mxPoint x="750" y="810" as="targetPoint" />
          </mxGeometry>
        </mxCell>
        <mxCell id="8B4oB40xsuTlf0uBAs5t-70" value="Use" style="endArrow=open;endSize=12;dashed=1;html=1;rounded=0;" parent="1" source="8B4oB40xsuTlf0uBAs5t-66" target="8B4oB40xsuTlf0uBAs5t-57" edge="1">
          <mxGeometry width="160" relative="1" as="geometry">
            <mxPoint x="760.29" y="770.1800000000001" as="sourcePoint" />
            <mxPoint x="1050.29" y="756.1800000000001" as="targetPoint" />
          </mxGeometry>
        </mxCell>
        <mxCell id="8B4oB40xsuTlf0uBAs5t-71" value="Скасувати бронювання" style="ellipse;whiteSpace=wrap;html=1;" parent="1" vertex="1">
          <mxGeometry x="230" y="430" width="140" height="70" as="geometry" />
        </mxCell>
        <mxCell id="8B4oB40xsuTlf0uBAs5t-72" value="" style="endArrow=open;endFill=1;endSize=12;html=1;rounded=0;" parent="1" source="8B4oB40xsuTlf0uBAs5t-2" target="8B4oB40xsuTlf0uBAs5t-71" edge="1">
          <mxGeometry width="160" relative="1" as="geometry">
            <mxPoint x="120" y="240.44" as="sourcePoint" />
            <mxPoint x="259" y="458.44" as="targetPoint" />
          </mxGeometry>
        </mxCell>
        <mxCell id="8B4oB40xsuTlf0uBAs5t-73" value="Use" style="endArrow=open;endSize=12;dashed=1;html=1;rounded=0;" parent="1" source="8B4oB40xsuTlf0uBAs5t-71" target="8B4oB40xsuTlf0uBAs5t-8" edge="1">
          <mxGeometry width="160" relative="1" as="geometry">
            <mxPoint x="297.77" y="501.56" as="sourcePoint" />
            <mxPoint x="699.77" y="409.56" as="targetPoint" />
          </mxGeometry>
        </mxCell>
      </root>
    </mxGraphModel>
  </diagram>
</mxfile>
